<?xml version="1.0" standalone="no"?>
<!DOCTYPE svg PUBLIC "-//W3C//DTD SVG 20010904//EN"
 "http://www.w3.org/TR/2001/REC-SVG-20010904/DTD/svg10.dtd">
<svg version="1.0" xmlns="http://www.w3.org/2000/svg"
 width="512.000000pt" height="512.000000pt" viewBox="0 0 512.000000 512.000000"
 preserveAspectRatio="xMidYMid meet">

<g transform="translate(0.000000,512.000000) scale(0.100000,-0.100000)"
fill="#000000" stroke="none">
<path d="M2355 5110 c-504 -43 -969 -225 -1375 -538 -101 -78 -334 -308 -412
-407 -294 -374 -468 -774 -539 -1240 -41 -268 -28 -637 32 -909 83 -379 258
-746 503 -1056 76 -96 299 -319 395 -394 309 -245 658 -413 1036 -500 346 -79
765 -81 1109 -5 380 84 748 259 1056 503 98 78 321 301 396 396 292 371 477
805 540 1270 23 169 23 491 0 660 -147 1078 -935 1936 -1991 2169 -216 48
-535 69 -750 51z m1723 -1016 c66 -33 117 -97 132 -167 8 -37 10 -347 8 -1067
-3 -967 -4 -1017 -22 -1050 -26 -49 -74 -98 -121 -123 -39 -22 -49 -22 -547
-25 l-508 -3 0 -185 0 -185 87 -40 c121 -56 123 -58 123 -144 0 -41 -5 -78
-12 -88 -12 -16 -61 -17 -673 -15 l-660 3 0 94 0 94 105 47 105 47 3 186 2
186 -507 3 c-499 3 -509 3 -548 25 -47 25 -95 74 -121 123 -18 33 -19 83 -22
1050 -2 720 0 1030 8 1067 15 70 66 134 132 167 l52 26 1466 0 1466 0 52 -26z"/>
<path d="M1115 4041 c-47 -12 -72 -28 -102 -68 l-28 -36 -3 -894 -2 -893 1580
0 1580 0 -2 893 -3 894 -28 36 c-60 78 79 72 -1527 74 -789 0 -1448 -2 -1465
-6z m1993 -103 l3 -48 49 0 c56 0 70 -15 70 -74 0 -35 0 -35 48 -38 l47 -3 3
-770 c2 -715 1 -771 -15 -782 -13 -10 -153 -13 -619 -13 -677 0 -634 -5 -634
75 l0 44 -52 3 -53 3 -3 52 -3 52 -47 3 -47 3 -3 760 c-1 418 0 766 3 773 3
10 134 12 627 10 l623 -3 3 -47z"/>
<path d="M1915 3918 c-3 -7 -4 -326 -3 -708 l3 -695 558 -3 557 -2 0 710 0
710 -555 0 c-435 0 -557 -3 -560 -12z m480 -328 l0 -265 -202 -3 -203 -2 0
263 c0 145 3 267 7 271 4 3 95 5 202 4 l196 -3 0 -265z m584 256 c7 -9 11 -41
9 -83 l-3 -68 -260 0 -260 0 -3 69 c-2 38 -1 75 2 83 8 20 498 19 515 -1z m4
-237 c6 -9 7 -24 4 -33 -6 -14 -35 -16 -261 -16 -242 0 -256 1 -266 19 -7 15
-6 23 6 35 14 14 48 16 261 14 214 -3 247 -5 256 -19z m0 -120 c6 -9 7 -24 4
-33 -6 -14 -35 -16 -261 -16 -242 0 -256 1 -266 19 -7 15 -6 23 6 35 14 14 48
16 261 14 214 -3 247 -5 256 -19z m0 -120 c6 -9 7 -24 4 -33 -6 -14 -35 -16
-261 -16 -242 0 -256 1 -266 19 -7 15 -6 23 6 35 14 14 48 16 261 14 214 -3
247 -5 256 -19z m-5 -118 c8 -4 12 -19 10 -32 l-3 -24 -364 0 c-329 0 -365 2
-374 17 -8 12 -7 21 2 32 12 14 56 16 365 16 193 0 357 -4 364 -9z m-803 -121
l0 -95 -90 0 -90 0 -3 84 c-2 46 0 91 2 98 4 11 26 13 93 11 l88 -3 0 -95z
m813 -32 c3 -22 -2 -28 -20 -33 -13 -3 -178 -4 -367 -3 -308 3 -345 5 -354 20
-8 12 -7 21 2 32 12 14 54 16 375 14 l361 -3 3 -27z m0 -120 c3 -22 -2 -28
-20 -33 -13 -3 -178 -4 -367 -3 -308 3 -345 5 -354 20 -8 12 -7 21 2 32 12 14
54 16 375 14 l361 -3 3 -27z m-819 -82 c8 -9 11 -46 9 -103 l-3 -88 -90 0 -90
0 -3 94 c-2 69 1 97 10 103 23 14 154 10 167 -6z m818 -32 c3 -9 2 -24 -4 -33
-9 -14 -51 -16 -357 -19 -228 -1 -354 1 -366 8 -20 10 -27 40 -13 53 3 4 170
7 370 7 327 0 364 -2 370 -16z m-2 -144 l0 -25 -368 -3 c-320 -2 -368 0 -373
13 -4 8 -4 22 0 30 5 13 53 15 373 13 l368 -3 0 -25z"/>
<path d="M3100 3137 c0 -510 -3 -676 -12 -685 -9 -9 -143 -12 -540 -12 -521 0
-528 0 -528 -20 0 -20 7 -20 560 -20 l560 0 0 705 c0 698 0 705 -20 705 -20 0
-20 -7 -20 -673z"/>
<path d="M3220 3031 c0 -368 -3 -676 -6 -685 -5 -14 -62 -16 -540 -16 l-534 0
0 -25 0 -25 560 0 560 0 0 710 c0 703 0 710 -20 710 -20 0 -20 -7 -20 -669z"/>
<path d="M2530 2037 c-37 -18 -70 -74 -70 -117 0 -43 33 -99 70 -117 37 -19
98 -16 135 7 78 48 75 183 -5 225 -35 18 -96 19 -130 2z m117 -59 c30 -28 31
-83 1 -115 -47 -50 -138 -12 -138 57 0 68 87 105 137 58z"/>
<path d="M2170 1485 l0 -185 390 0 390 0 0 185 0 185 -390 0 -390 0 0 -185z"/>
</g>
</svg>
