<?xml version="1.0" standalone="no"?>
<!DOCTYPE svg PUBLIC "-//W3C//DTD SVG 20010904//EN"
 "http://www.w3.org/TR/2001/REC-SVG-20010904/DTD/svg10.dtd">
<svg version="1.0" xmlns="http://www.w3.org/2000/svg"
 width="512.000000pt" height="512.000000pt" viewBox="0 0 512.000000 512.000000"
 preserveAspectRatio="xMidYMid meet">

<g transform="translate(0.000000,512.000000) scale(0.100000,-0.100000)"
fill="#000000" stroke="none">
<path d="M1800 5101 c-47 -10 -118 -33 -157 -50 l-71 -31 -404 0 c-333 0 -408
-2 -424 -14 -17 -13 -19 -31 -24 -213 l-5 -198 -195 -5 c-176 -5 -199 -7 -236
-27 -63 -34 -97 -66 -129 -125 l-30 -53 0 -1660 0 -1660 22 -41 c36 -67 70
-101 135 -133 l61 -31 854 0 853 0 0 -94 0 -94 -217 -4 c-177 -4 -227 -8 -266
-22 -70 -26 -148 -102 -182 -178 -27 -59 -29 -73 -33 -220 -5 -174 -2 -198 30
-228 22 -20 30 -20 1178 -20 1142 0 1156 0 1178 20 30 28 35 70 30 238 -4 135
-7 152 -33 210 -34 76 -112 151 -182 178 -39 14 -89 18 -265 22 l-218 4 0 94
0 94 853 0 854 0 61 31 c65 32 99 66 135 133 l22 41 0 1660 0 1660 -30 53
c-32 59 -66 91 -129 125 l-41 22 -785 5 -785 5 -5 198 c-5 182 -7 200 -24 213
-16 12 -91 14 -422 14 l-401 0 -69 31 c-144 66 -338 85 -504 50z m387 -779
c46 -22 104 -44 130 -47 27 -3 61 -9 77 -12 l28 -5 -3 -147 -4 -147 -38 -77
c-30 -60 -51 -88 -98 -127 -69 -57 -177 -123 -233 -140 -90 -29 -204 9 -341
112 -134 102 -175 196 -175 404 l0 122 28 6 c15 2 48 8 75 11 78 10 200 78
276 154 l66 66 65 -66 c47 -47 88 -77 147 -107z m-1467 -951 c0 -732 1 -760
19 -782 l19 -24 1212 0 1212 0 19 24 c18 22 19 50 19 782 l0 759 658 -2 657
-3 0 -1400 0 -1400 -1975 0 -1975 0 -3 1390 c-1 765 0 1396 3 1403 3 8 27 12
70 12 l65 0 0 -759z m1237 87 c26 -1 69 1 96 6 l47 7 0 -33 c0 -29 -8 -38 -65
-77 l-64 -44 -65 44 c-60 41 -65 47 -66 81 l0 36 35 -9 c19 -5 56 -10 82 -11z"/>
<path d="M3520 3960 l0 -40 -70 0 -70 0 0 -75 0 -75 69 0 70 0 3 -42 3 -43 75
0 75 0 3 43 3 42 360 0 359 0 0 75 0 75 -360 0 -360 0 0 40 0 40 -80 0 -80 0
0 -40z"/>
<path d="M4107 3644 c-4 -4 -7 -25 -7 -46 l0 -38 -360 0 -360 0 0 -75 0 -75
360 0 360 0 0 -40 0 -40 80 0 80 0 0 40 0 40 70 0 70 0 0 75 0 75 -69 0 -70 0
-3 43 -3 42 -70 3 c-39 1 -74 0 -78 -4z"/>
<path d="M3520 3250 l0 -40 -70 0 -70 0 0 -80 0 -80 70 0 70 0 0 -40 0 -41 78
3 77 3 3 38 3 37 360 0 359 0 0 80 0 80 -360 0 -360 0 0 40 0 40 -80 0 -80 0
0 -40z"/>
<path d="M4100 2890 l0 -40 -360 0 -360 0 0 -75 0 -75 360 0 360 0 0 -40 0
-40 80 0 80 0 0 40 0 40 70 0 70 0 0 75 0 75 -70 0 -70 0 0 40 0 40 -80 0 -80
0 0 -40z"/>
<path d="M1210 2377 l0 -73 -56 -23 -56 -24 -47 47 c-26 25 -51 46 -57 46 -5
0 -32 -23 -59 -50 l-49 -50 52 -53 c53 -54 53 -54 37 -83 -8 -16 -20 -41 -25
-56 -9 -27 -12 -28 -85 -28 l-75 0 0 -75 0 -74 76 -3 75 -3 23 -55 23 -55 -51
-52 -50 -53 54 -55 54 -55 52 51 52 52 56 -24 56 -23 0 -73 0 -73 80 0 80 0 0
73 0 73 56 23 56 24 52 -52 52 -51 54 55 54 55 -52 53 c-53 54 -53 54 -37 83
8 16 20 41 25 57 9 26 12 27 80 27 l70 0 0 75 0 75 -75 0 c-61 0 -75 3 -75 15
0 9 -9 34 -21 57 l-21 41 53 53 53 54 -54 55 -54 55 -52 -51 -52 -51 -53 20
-54 20 -5 73 -5 74 -77 3 -78 3 0 -74z m168 -246 c122 -63 148 -215 54 -314
-40 -43 -81 -60 -142 -61 -174 -2 -263 199 -147 331 18 20 45 42 62 49 45 20
129 17 173 -5z"/>
<path d="M1980 2335 l0 -75 620 0 620 0 0 75 0 75 -620 0 -620 0 0 -75z"/>
<path d="M1980 2080 l0 -80 1210 0 1210 0 0 80 0 80 -1210 0 -1210 0 0 -80z"/>
<path d="M1980 1825 l0 -75 1210 0 1210 0 0 75 0 75 -1210 0 -1210 0 0 -75z"/>
<path d="M1980 1575 l0 -75 1210 0 1210 0 0 75 0 75 -1210 0 -1210 0 0 -75z"/>
</g>
</svg>
